# Blender 4.1.1
# www.blender.org
mtllib boat_tri.mtl
o Cube.001
v -2.077672 0.040324 8.329566
v -3.393517 0.622461 -3.944306
v -2.125934 2.018094 9.469363
v -3.658186 2.648113 -4.836774
v -3.051805 -0.078223 6.287538
v -3.856655 0.001518 4.253705
v -4.178650 0.108608 2.210918
v -4.224194 0.256812 0.164533
v -3.984241 0.433863 -1.886384
v -3.263732 1.989286 7.096334
v -4.198854 1.964598 4.719107
v -4.574066 2.088502 2.338516
v -4.627091 2.259232 -0.046333
v -4.347279 2.457703 -2.436820
v -1.811512 0.046990 8.324125
v -1.028818 0.681687 -3.992644
v -1.815768 2.025862 9.463023
v -0.902514 2.717133 -4.893105
v -0.916879 -0.024751 6.243896
v -0.200763 0.093084 4.178973
v 0.031772 0.214062 2.124850
v -0.013771 0.362267 0.078465
v -0.345843 0.524991 -1.960759
v -0.775820 2.051600 7.045478
v 0.061497 2.071303 4.632018
v 0.332500 2.211392 2.238218
v 0.279473 2.382121 -0.146631
v -0.107316 2.563897 -2.523492
v -1.944592 0.043665 8.326846
v -2.225234 0.690281 -4.609800
v -1.970893 2.023758 9.466306
v -2.287570 2.702800 -5.193416
v -1.971427 -0.593980 6.232849
v -2.013161 -0.605764 4.176771
v -2.057608 -0.503611 2.127597
v -2.103267 -0.350545 0.081507
v -2.149650 -0.167107 -1.962744
v -2.050786 0.074105 8.124022
v -3.350071 0.637859 -3.742833
v -2.090594 2.032165 9.191996
v -3.600373 2.640949 -4.573042
v -2.997410 -0.057601 6.140007
v -3.785435 0.037598 4.144212
v -4.096057 0.143687 2.176606
v -4.140176 0.287325 0.199500
v -3.908102 0.459280 -1.786208
v -3.185200 1.995695 6.883047
v -4.099881 1.972862 4.566656
v -4.457962 2.094774 2.288835
v -4.509042 2.259423 0.000790
v -4.239988 2.451578 -2.298173
v -1.848427 0.079173 8.119885
v -1.064715 0.695098 -3.789550
v -1.863067 2.037864 9.187345
v -0.949076 2.707353 -4.627239
v -0.978218 -0.007028 6.098732
v -0.278111 0.125443 4.072516
v -0.053804 0.244930 2.093976
v -0.097712 0.388573 0.116865
v -0.419004 0.546668 -1.857531
v -0.863220 2.053851 6.835582
v -0.043909 2.074448 4.483746
v 0.214296 2.211795 2.193326
v 0.163585 2.376453 -0.094726
v -0.208413 2.552553 -2.380585
v -1.949568 0.080098 8.128096
v -2.221526 0.707081 -4.407825
v -1.977257 2.037130 9.171362
v -2.281260 2.691720 -4.898334
v -2.163348 0.408274 -1.927882
v -2.116967 0.224881 0.116371
v -2.071309 0.071883 2.162465
v -2.026865 -0.030168 4.211646
v -1.985136 -0.018152 6.267737
v -2.207452 0.668560 -3.766517
v -1.949568 0.080098 8.128096
v -0.419004 0.546668 -1.857531
v -0.097712 0.388573 0.116865
v -0.053804 0.244930 2.093976
v -0.278111 0.125443 4.072516
v -0.978218 -0.007028 6.098732
v -1.064715 0.695098 -3.789550
v -1.848427 0.079173 8.119885
v -3.908102 0.459280 -1.786208
v -4.140176 0.287325 0.199500
v -2.050786 0.074105 8.124022
v -3.350071 0.637859 -3.742833
v -2.997410 -0.057601 6.140007
v -3.785435 0.037598 4.144212
v -4.096057 0.143687 2.176606
vn -0.1177 -0.9457 -0.3030
vn 0.0302 -0.4985 0.8663
vn -0.9259 -0.2445 -0.2882
vn 0.0300 -0.9563 0.2908
vn -0.4302 -0.9026 0.0139
vn -0.3141 -0.9485 -0.0405
vn -0.2791 -0.9580 -0.0654
vn -0.3133 -0.9465 -0.0778
vn -0.8665 -0.2564 0.4283
vn -0.9057 -0.2406 0.3490
vn -0.9689 -0.2027 0.1421
vn -0.9805 -0.1963 0.0076
vn -0.9691 -0.2088 -0.1314
vn -0.4333 -0.4102 -0.8025
vn 0.3519 -0.9167 -0.1890
vn 0.0251 -0.4984 0.8666
vn 0.9244 -0.1981 -0.3260
vn 0.0298 -0.9563 0.2908
vn 0.4750 -0.8800 -0.0046
vn 0.3593 -0.9316 -0.0542
vn 0.3238 -0.9429 -0.0778
vn 0.3201 -0.9388 -0.1270
vn 0.8972 -0.2188 0.3836
vn 0.9286 -0.1869 0.3206
vn 0.9828 -0.1537 0.1023
vn 0.9886 -0.1470 -0.0326
vn 0.9721 -0.1602 -0.1711
vn 0.4202 -0.3888 -0.8199
vn -0.0918 0.4714 -0.8771
vn 0.9308 0.2309 0.2835
vn 0.8728 0.2411 -0.4244
vn 0.9089 0.2183 -0.3552
vn 0.9716 0.1887 -0.1429
vn 0.9831 0.1829 -0.0087
vn 0.9721 0.1952 0.1303
vn 0.3419 0.3193 0.8838
vn 0.0322 0.4745 -0.8797
vn -0.9288 0.1843 0.3215
vn -0.9003 0.1967 -0.3882
vn -0.9325 0.1721 -0.3176
vn -0.9848 0.1397 -0.1029
vn -0.9905 0.1335 0.0316
vn -0.9745 0.1464 0.1701
vn -0.3211 0.3027 0.8974
vn -0.0356 0.9983 0.0461
vn -0.1024 0.9935 0.0494
vn -0.0543 0.9985 0.0100
vn -0.0612 0.9980 0.0143
vn -0.0291 0.9979 0.0580
vn -0.0304 0.9969 0.0720
vn -0.0434 0.9960 0.0776
vn -0.0299 0.9988 0.0381
vn -0.0128 0.9989 0.0456
vn -0.0101 0.9974 0.0720
vn 0.0545 0.9979 0.0341
vn 0.0034 1.0000 0.0093
vn -0.0452 0.9976 0.0533
vn -0.0241 0.9971 0.0723
vn -0.0134 0.9968 0.0790
vn -0.0185 0.9993 0.0335
vn -0.0237 0.9898 0.1407
vn -0.0570 0.9970 -0.0516
vn -0.0383 0.9993 -0.0051
vn 0.0366 0.9981 0.0489
vn 0.0359 0.9966 0.0737
vn 0.0363 0.9954 0.0885
vn -0.0828 0.9911 0.1038
vn 0.0048 0.9986 -0.0528
vn -0.0120 0.9999 -0.0056
vn -0.0845 0.9951 0.0514
vn -0.0826 0.9937 0.0761
vn -0.0805 0.9924 0.0926
vn -0.3131 -0.9334 -0.1754
vn 0.0353 -0.4981 0.8664
vn -0.9261 -0.2468 -0.2855
vn -0.4075 -0.8796 0.2455
vn -0.3085 -0.9474 0.0850
vn -0.2776 -0.9607 -0.0066
vn -0.2770 -0.9588 -0.0633
vn -0.2776 -0.9538 -0.1148
vn -0.8687 -0.2631 0.4197
vn -0.9042 -0.2328 0.3581
vn -0.9689 -0.2026 0.1422
vn -0.9805 -0.1965 0.0077
vn -0.9690 -0.2094 -0.1308
vn -0.2315 -0.2776 -0.9324
vn 0.1524 -0.9389 -0.3085
vn 0.9248 -0.2004 -0.3233
vn 0.4607 -0.8579 0.2277
vn 0.3588 -0.9307 0.0713
vn 0.3248 -0.9456 -0.0189
vn 0.3218 -0.9438 -0.0755
vn 0.3568 -0.9297 -0.0915
vn 0.8950 -0.2122 0.3922
vn 0.9301 -0.1946 0.3115
vn 0.9828 -0.1538 0.1022
vn 0.9886 -0.1471 -0.0325
vn 0.9722 -0.1608 -0.1705
vn 0.2069 -0.2666 -0.9414
vn -0.0354 0.9983 0.0460
vn -0.0369 0.9967 0.0726
vn -0.1030 0.9940 0.0373
vn -0.0530 0.9985 0.0105
vn -0.0027 0.9986 0.0524
vn -0.0229 0.9971 0.0723
vn -0.0333 0.9963 0.0794
vn -0.0301 0.9990 0.0337
vn -0.0126 0.9989 0.0456
vn 0.0545 0.9974 0.0462
vn 0.0047 1.0000 0.0088
vn 0.0118 0.9998 0.0129
vn -0.0185 0.9982 0.0578
vn -0.0166 0.9973 0.0718
vn -0.0033 0.9970 0.0768
vn -0.0186 0.9991 0.0379
vn 0.0373 0.9941 0.1014
vn -0.0325 0.9982 -0.0508
vn 0.0372 0.9988 0.0329
vn 0.0357 0.9982 0.0482
vn 0.0337 0.9969 0.0717
vn 0.0344 0.9953 0.0902
vn -0.0202 0.9899 0.1406
vn -0.0196 0.9985 -0.0510
vn -0.0858 0.9957 0.0355
vn -0.0836 0.9952 0.0506
vn -0.0806 0.9940 0.0740
vn -0.0824 0.9924 0.0909
vt 0.293674 0.182356
vt 0.204974 0.120679
vt 0.204974 0.182356
vt 0.953620 0.316924
vt 0.941970 0.438678
vt 0.943623 0.316924
vt -0.166038 0.545104
vt -0.314257 0.334035
vt -0.092811 0.334035
vt 0.737173 0.175414
vt 0.648473 0.182356
vt 0.737173 0.182356
vt 0.648473 0.126672
vt 0.559774 0.182356
vt 0.559774 0.087002
vt 0.471074 0.182356
vt 0.471074 0.072539
vt 0.382374 0.182356
vt 0.293674 0.087459
vt 1.014421 0.334035
vt 0.866201 0.545104
vt 0.792975 0.334035
vt 0.608141 0.545104
vt 0.571528 0.334035
vt 0.350082 0.545104
vt 0.350082 0.334035
vt 0.128636 0.334035
vt 0.092022 0.545104
vt 1.109922 0.641039
vt 0.857075 0.343621
vt 1.074048 0.343621
vt 0.293674 0.796789
vt 0.204974 0.735112
vt 0.293674 0.701892
vt 0.965271 0.438678
vt 0.953620 0.438678
vt -0.215379 0.414336
vt -0.069900 0.621503
vt 0.001974 0.414336
vt 0.648473 0.796789
vt 0.737173 0.789847
vt 0.737173 0.796789
vt 0.559774 0.796789
vt 0.648473 0.741105
vt 0.471074 0.796789
vt 0.559774 0.701435
vt 0.382374 0.796789
vt 0.471074 0.686972
vt 0.382374 0.686972
vt 1.088739 0.414336
vt 0.943259 0.621503
vt 1.196548 0.621503
vt 0.871386 0.414336
vt 0.689969 0.621503
vt 0.654033 0.414336
vt 0.436680 0.621503
vt 0.219327 0.414336
vt 0.436680 0.414336
vt 0.183390 0.621503
vt 0.604228 0.641039
vt 0.640102 0.343621
vt -0.424098 0.545104
vt 1.124261 0.545104
vt 0.857075 0.441597
vt 0.857075 0.543063
vt 0.943336 0.543063
vt 0.931097 0.441597
vt 0.963618 0.316924
vt 0.006652 0.881113
vt -0.246638 0.881113
vt -0.138828 0.673945
vt 0.078525 0.673945
vt 1.273100 0.881113
vt 1.019810 0.881113
vt 0.947938 0.673945
vt 1.165291 0.673945
vt 0.766521 0.881113
vt 0.730585 0.673945
vt 0.513231 0.881113
vt 0.513231 0.673945
vt 0.259941 0.881113
vt 0.295878 0.673945
vt 0.770814 0.543063
vt 0.783053 0.441597
vt 1.051290 0.150725
vt 1.020123 0.133367
vt 1.052279 0.129218
vt -0.302898 -0.207054
vt -0.550394 -0.110272
vt -0.579737 -0.118749
vt 0.781514 -0.033961
vt 0.756694 -0.023689
vt 0.512567 -0.167440
vt 0.494801 -0.154319
vt 0.243112 -0.225368
vt 0.236928 -0.209669
vt -0.023888 -0.222850
vt -0.028673 -0.239076
vt -0.287685 -0.192053
vt -0.556105 0.071836
vt -0.589258 0.070249
vt 1.018548 0.164931
vt 1.017275 0.149037
vt -0.331937 0.374680
vt -0.568560 0.253635
vt -0.315303 0.361214
vt 0.764386 0.309151
vt 1.050131 0.172249
vt 0.483411 0.416659
vt 0.740712 0.296494
vt 0.209528 0.447427
vt 0.467040 0.401811
vt -0.055888 0.418202
vt 0.204941 0.431136
vt -0.062268 0.433925
vt -0.598608 0.259282
vt 1.618602 0.970222
vt 1.257380 0.458003
vt 1.618690 0.458003
vt -0.344480 0.458003
vt -0.704635 0.503358
vt -0.705790 0.458003
vt 0.055985 0.458003
vt -0.315739 0.910567
vt 0.456450 0.458003
vt 0.077427 1.244103
vt 0.856914 0.458003
vt 0.463189 1.363997
vt 1.237842 1.240017
vt 1.618602 -0.054215
vt 1.237842 -0.324011
vt -0.704635 0.412648
vt -0.315739 0.005440
vt 0.077427 -0.328095
vt 0.463189 -0.447990
vt 0.850103 -0.448037
vt 0.382374 0.072539
vt 0.857075 0.641039
vt 0.204974 0.796789
vt -0.323190 0.621503
vt 0.850103 1.364044
s 0
usemtl Material.001
f 37/1/1 2/2/1 30/3/1
f 29/4/2 3/5/2 1/6/2
f 14/7/3 2/8/3 9/9/3
f 1/10/4 33/11/4 29/12/4
f 5/13/5 34/14/5 33/11/5
f 6/15/6 35/16/6 34/14/6
f 7/17/7 36/18/7 35/16/7
f 36/18/8 9/19/8 37/1/8
f 1/20/9 10/21/9 5/22/9
f 5/22/10 11/23/10 6/24/10
f 6/24/11 12/25/11 7/26/11
f 12/25/12 8/27/12 7/26/12
f 13/28/13 9/9/13 8/27/13
f 4/29/14 30/30/14 2/31/14
f 37/32/15 16/33/15 23/34/15
f 29/4/16 17/35/16 31/36/16
f 16/37/17 28/38/17 23/39/17
f 33/40/18 15/41/18 29/42/18
f 34/43/19 19/44/19 33/40/19
f 35/45/20 20/46/20 34/43/20
f 36/47/21 21/48/21 35/45/21
f 36/47/22 23/34/22 22/49/22
f 15/50/23 24/51/23 17/52/23
f 19/53/24 25/54/24 24/51/24
f 20/55/25 26/56/25 25/54/25
f 22/57/26 26/56/26 21/58/26
f 23/39/27 27/59/27 22/57/27
f 30/30/28 18/60/28 16/61/28
f 38/6/29 40/5/29 68/36/29 66/4/29
f 39/8/30 41/62/30 51/7/30 46/9/30
f 42/22/31 47/21/31 40/63/31 38/20/31
f 43/24/32 48/23/32 47/21/32 42/22/32
f 44/26/33 49/25/33 48/23/33 43/24/33
f 45/27/34 50/28/34 49/25/34 44/26/34
f 46/9/35 51/7/35 50/28/35 45/27/35
f 67/64/36 69/65/36 41/66/36 39/67/36
f 68/36/37 54/35/37 52/68/37 66/4/37
f 65/69/38 55/70/38 53/71/38 60/72/38
f 54/73/39 61/74/39 56/75/39 52/76/39
f 61/74/40 62/77/40 57/78/40 56/75/40
f 62/77/41 63/79/41 58/80/41 57/78/41
f 63/79/42 64/81/42 59/82/42 58/80/42
f 64/81/43 65/69/43 60/72/43 59/82/43
f 55/83/44 69/65/44 67/64/44 53/84/44
f 31/85/45 40/86/45 3/87/45
f 14/88/46 41/89/46 4/90/46
f 10/91/47 40/86/47 47/92/47
f 11/93/48 47/92/48 48/94/48
f 12/95/49 48/94/49 49/96/49
f 12/95/50 50/97/50 13/98/50
f 13/98/51 51/99/51 14/88/51
f 4/90/52 69/100/52 32/101/52
f 31/85/53 54/102/53 68/103/53
f 28/104/54 55/105/54 65/106/54
f 24/107/55 54/102/55 17/108/55
f 25/109/56 61/110/56 24/107/56
f 26/111/57 62/112/57 25/109/57
f 26/111/58 64/113/58 63/114/58
f 27/115/59 65/106/59 64/113/59
f 18/116/60 69/100/60 55/105/60
f 37/1/73 9/19/73 2/2/73
f 29/4/74 31/36/74 3/5/74
f 14/7/75 4/62/75 2/8/75
f 1/10/76 5/13/76 33/11/76
f 5/13/77 6/15/77 34/14/77
f 6/15/78 7/17/78 35/16/78
f 7/17/79 8/137/79 36/18/79
f 36/18/80 8/137/80 9/19/80
f 1/20/81 3/63/81 10/21/81
f 5/22/82 10/21/82 11/23/82
f 6/24/83 11/23/83 12/25/83
f 12/25/84 13/28/84 8/27/84
f 13/28/85 14/7/85 9/9/85
f 4/29/86 32/138/86 30/30/86
f 37/32/87 30/139/87 16/33/87
f 29/4/2 15/68/2 17/35/2
f 16/37/88 18/140/88 28/38/88
f 33/40/89 19/44/89 15/41/89
f 34/43/90 20/46/90 19/44/90
f 35/45/91 21/48/91 20/46/91
f 36/47/92 22/49/92 21/48/92
f 36/47/93 37/32/93 23/34/93
f 15/50/94 19/53/94 24/51/94
f 19/53/95 20/55/95 25/54/95
f 20/55/96 21/58/96 26/56/96
f 22/57/97 27/59/97 26/56/97
f 23/39/98 28/38/98 27/59/98
f 30/30/99 32/138/99 18/60/99
f 31/85/100 68/103/100 40/86/100
f 14/88/101 51/99/101 41/89/101
f 10/91/102 3/87/102 40/86/102
f 11/93/103 10/91/103 47/92/103
f 12/95/104 11/93/104 48/94/104
f 12/95/105 49/96/105 50/97/105
f 13/98/106 50/97/106 51/99/106
f 4/90/107 41/89/107 69/100/107
f 31/85/108 17/108/108 54/102/108
f 28/104/109 18/116/109 55/105/109
f 24/107/110 61/110/110 54/102/110
f 25/109/111 62/112/111 61/110/111
f 26/111/112 63/114/112 62/112/112
f 26/111/113 27/115/113 64/113/113
f 27/115/114 28/104/114 65/106/114
f 18/116/115 32/101/115 69/100/115
usemtl Material.002
f 87/117/61 70/118/61 75/119/61
f 74/120/62 86/121/62 76/122/62
f 73/123/63 88/124/63 74/120/63
f 72/125/64 89/126/64 73/123/64
f 71/127/65 90/128/65 72/125/65
f 84/129/66 71/127/66 70/118/66
f 82/130/67 70/118/67 77/131/67
f 83/132/68 74/120/68 76/122/68
f 81/133/69 73/123/69 74/120/69
f 80/134/70 72/125/70 73/123/70
f 79/135/71 71/127/71 72/125/71
f 77/131/72 71/127/72 78/136/72
f 87/117/116 84/129/116 70/118/116
f 74/120/117 88/124/117 86/121/117
f 73/123/118 89/126/118 88/124/118
f 72/125/119 90/128/119 89/126/119
f 71/127/120 85/141/120 90/128/120
f 84/129/121 85/141/121 71/127/121
f 82/130/122 75/119/122 70/118/122
f 83/132/123 81/133/123 74/120/123
f 81/133/124 80/134/124 73/123/124
f 80/134/125 79/135/125 72/125/125
f 79/135/126 78/136/126 71/127/126
f 77/131/127 70/118/127 71/127/127
o Cube.002
v 0.165023 1.777936 3.173825
v 0.017250 1.719843 4.074565
v -4.109714 1.616459 4.159257
v -4.293303 1.666292 3.264630
v 0.162429 1.886889 3.180426
v 0.014656 1.828797 4.081166
v -4.112308 1.725413 4.165858
v -4.295897 1.775246 3.271232
v -4.371415 1.917413 -0.923245
v -4.272071 1.975525 -1.843339
v -0.144830 2.078929 -1.928249
v -0.013836 2.026520 -1.011780
v -4.374044 2.027872 -0.916552
v -4.274701 2.085984 -1.836647
v -0.147459 2.189388 -1.921556
v -0.016465 2.136979 -1.005087
vn 0.9866 0.0136 0.1627
vn 0.0220 -0.0599 0.9980
vn -0.9794 -0.0354 0.1990
vn -0.0218 0.0599 -0.9980
vn 0.0238 -0.9979 -0.0605
vn -0.0238 0.9979 0.0605
vn -0.9940 -0.0171 -0.1084
vn -0.0220 0.0599 -0.9980
vn 0.9897 0.0320 -0.1396
vn 0.0218 -0.0600 0.9980
vt 0.198211 0.344724
vt 0.745502 0.344724
vt 0.745502 0.278696
vt 0.198211 0.278696
vt 0.142926 0.679677
vt 0.853459 0.679677
vt 0.853459 0.661807
vt 0.142926 0.661807
vt 0.216936 0.796840
vt 0.216936 0.884696
vt 0.688018 0.884696
vt 0.688018 0.796840
vt 0.831606 0.398608
vt 0.831606 0.517215
vt 0.164779 0.517215
vt 0.164779 0.398608
s 0
usemtl Material.003
f 95/142/128 96/143/128 92/144/128 91/145/128
f 96/146/129 97/147/129 93/148/129 92/149/129
f 97/143/130 98/142/130 94/145/130 93/144/130
f 98/147/131 95/146/131 91/149/131 94/148/131
f 91/150/132 92/151/132 93/152/132 94/153/132
f 98/154/133 97/155/133 96/156/133 95/157/133
f 103/142/134 104/143/134 100/144/134 99/145/134
f 104/146/135 105/147/135 101/148/135 100/149/135
f 105/143/136 106/142/136 102/145/136 101/144/136
f 106/147/137 103/146/137 99/149/137 102/148/137
f 99/150/132 100/151/132 101/152/132 102/153/132
f 106/154/133 105/155/133 104/156/133 103/157/133
